<svg xmlns="http://www.w3.org/2000/svg" width="64" height="64" viewBox="0 0 32 32" fill="none">
  <defs>
    <linearGradient id="g" x1="0" y1="0" x2="32" y2="32" gradientUnits="userSpaceOnUse">
      <stop stop-color="#4FC3F7"/>
      <stop offset="1" stop-color="#8E7CFF"/>
    </linearGradient>
  </defs>
  <rect width="32" height="32" rx="8" fill="url(#g)"/>
  <path d="M9 20.5V10h3.5v4.2c.9-.9 2.2-1.7 3.9-1.7 3.1 0 5.6 2.4 5.6 5.8V22H18.5v-2.9c0-1.8-1.2-3-2.9-3-1.9 0-3.3 1.4-3.3 3.5V22H9v-1.5z" fill="#fff"/>
</svg>
<svg xmlns="http://www.w3.org/2000/svg" width="64" height="64" viewBox="0 0 24 24" fill="none">
  <defs>
    <linearGradient id="g2" x1="0" y1="0" x2="24" y2="24" gradientUnits="userSpaceOnUse">
      <stop stop-color="#6aa2ff"/>
      <stop offset="1" stop-color="#8b5bff"/>
    </linearGradient>
  </defs>
  <rect width="24" height="24" rx="6" fill="url(#g2)"/>
  <path d="M6.5 14c1.8 1.4 4.2 1.4 6 0V9H6.5v5z" fill="#fff"/>
</svg>
