<svg xmlns="http://www.w3.org/2000/svg" width="220" height="40" viewBox="0 0 220 40" fill="none">
  <defs>
    <linearGradient id="grad" x1="0" y1="0" x2="220" y2="40" gradientUnits="userSpaceOnUse">
      <stop offset="0" stop-color="#00D19A"/>
      <stop offset="1" stop-color="#3FA6FF"/>
    </linearGradient>
  </defs>
  <text x="0" y="28" font-family="Inter, ui-sans-serif, system-ui, Arial" font-weight="900" font-size="28" letter-spacing="0.5" fill="url(#grad)">heymoney</text>
</svg>
<svg xmlns="http://www.w3.org/2000/svg" width="200" height="40" viewBox="0 0 200 40" fill="none">
  <defs>
    <linearGradient id="g" x1="0" y1="0" x2="200" y2="40" gradientUnits="userSpaceOnUse">
      <stop stop-color="#00D19A"/>
      <stop offset="1" stop-color="#3FA6FF"/>
    </linearGradient>
  </defs>
  <!-- Monogram H inside hex for crypto vibe -->
  <g>
    <path d="M8 8l12-6 12 6v12l-12 6-12-6V8z" fill="url(#g)"/>
    <path d="M17 12h6v5h-6v5h-4V7h4v5zm6 0h4v15h-4v-5h-6v-5h6z" fill="#0a0f1a"/>
  </g>
  <!-- Wordmark -->
  <g transform="translate(46,9)">
    <text x="0" y="18" font-family="Inter, ui-sans-serif, system-ui, Arial" font-weight="900" font-size="20" fill="url(#g)">heymoney</text>
  </g>
</svg>
<svg xmlns="http://www.w3.org/2000/svg" width="180" height="32" viewBox="0 0 180 32" fill="none">
  <defs>
    <linearGradient id="grad" x1="0" y1="0" x2="180" y2="32" gradientUnits="userSpaceOnUse">
      <stop stop-color="#4FC3F7"/>
      <stop offset="1" stop-color="#8E7CFF"/>
    </linearGradient>
  </defs>
  <!-- Symbol -->
  <g>
    <rect x="0" y="0" width="32" height="32" rx="10" fill="url(#grad)"/>
    <path d="M9 20.5V10h3.5v4.2c.9-.9 2.2-1.7 3.9-1.7 3.1 0 5.6 2.4 5.6 5.8V22H18.5v-2.9c0-1.8-1.2-3-2.9-3-1.9 0-3.3 1.4-3.3 3.5V22H9v-1.5z" fill="#fff"/>
  </g>
  <!-- Wordmark -->
  <g transform="translate(44,7)">
    <text x="0" y="16" font-family="Inter, ui-sans-serif, system-ui, Arial" font-weight="800" font-size="18" fill="url(#grad)">heymoney</text>
  </g>
</svg>
<svg xmlns="http://www.w3.org/2000/svg" width="120" height="24" viewBox="0 0 120 24" fill="none">
  <defs>
    <linearGradient id="g" x1="0" y1="0" x2="120" y2="24" gradientUnits="userSpaceOnUse">
      <stop stop-color="#6aa2ff"/>
      <stop offset="1" stop-color="#8b5bff"/>
    </linearGradient>
  </defs>
  <rect rx="6" width="24" height="24" fill="url(#g)"/>
  <path d="M7 14.5c1.6 1.2 3.4 1.2 5 0V10H7v4.5z" fill="#fff"/>
  <text x="34" y="17" font-family="Inter, system-ui, Arial" font-weight="900" font-size="16" fill="url(#g)">heymoney</text>
</svg>
